# xmcd CD database file
#
# Track frame offsets:
#	150
#	23279
#	43084
#	61347
#	72195
#	89656
#	109211
#	128534
#	136288
#	153238
#
# Disc length: 3124 seconds
#
# Revision: 0
# Processed by: cddbd v1.5.1PL0 Copyright (c) Steve Scherf et al.
# Submitted via: CDex 1.51
#
DISCID=7d0c320a
DTITLE=Shelton Davis - Bittersweet and Low
DYEAR=2003
DGENRE=Jazz
TTITLE0=Warmplace
TTITLE1=Into This
TTITLE2=Wide Open
TTITLE3=Lifeblood
TTITLE4=Darkhorse
TTITLE5=You Know We Will
TTITLE6=Someday
TTITLE7=Paraphernalia
TTITLE8=Freinds Lovers Family
TTITLE9=Subtitle
EXTD=YEAR: 2003
EXTT0=
EXTT1=
EXTT2=
EXTT3=
EXTT4=
EXTT5=
EXTT6=
EXTT7=
EXTT8=
EXTT9=
PLAYORDER=
